<?xml version="1.0" standalone="no"?>
<!DOCTYPE svg PUBLIC "-//W3C//DTD SVG 20010904//EN"
 "http://www.w3.org/TR/2001/REC-SVG-20010904/DTD/svg10.dtd">
<svg version="1.0" xmlns="http://www.w3.org/2000/svg"
 width="500.000000pt" height="500.000000pt" viewBox="0 0 500.000000 500.000000"
 preserveAspectRatio="xMidYMid meet">
<metadata>
Created by potrace 1.11, written by Peter Selinger 2001-2013
</metadata>
<g transform="translate(0.000000,500.000000) scale(0.100000,-0.100000)"
fill="#000000" stroke="none">
<path d="M1845 3539 c-221 -34 -428 -169 -551 -360 -25 -38 -46 -69 -47 -69
-1 0 -2 46 -2 103 0 119 -12 161 -61 210 -65 65 -93 70 -421 75 l-293 4 0
-226 0 -226 95 0 c100 0 147 -13 159 -45 3 -9 6 -381 6 -826 l0 -809 265 0
265 0 0 488 c0 498 5 590 40 729 49 191 173 359 318 430 75 37 78 38 192 38
112 0 118 -1 166 -30 69 -43 110 -126 124 -250 5 -50 10 -380 10 -747 l0 -658
265 0 265 0 0 493 c0 286 4 528 11 577 21 168 72 307 153 418 55 75 115 123
201 164 58 26 85 33 158 36 119 6 169 -9 229 -69 35 -35 52 -63 69 -115 23
-68 23 -78 28 -699 l6 -630 25 -50 c27 -54 69 -88 134 -107 27 -8 125 -12 291
-13 l250 0 3 223 2 222 -59 0 c-49 0 -65 4 -88 24 l-28 24 -6 544 c-6 583 -7
593 -63 741 -97 259 -312 390 -636 390 -190 -1 -344 -50 -495 -158 -76 -54
-183 -168 -216 -229 -13 -25 -26 -46 -29 -46 -3 0 -16 27 -28 60 -69 177 -210
302 -394 349 -91 24 -233 33 -313 20z"/>
</g>
</svg>
